<svg data-name="Layer 2" viewBox="0 0 35 35" xmlns="http://www.w3.org/2000/svg"><path d="M31.51 28h-28a3.17 3.17 0 0 1-2.36-1.09 3.63 3.63 0 0 1-.87-2.81c1.2-9.34 8.6-16.38 17.22-16.38s16 7 17.22 16.38a3.63 3.63 0 0 1-.85 2.84A3.17 3.17 0 0 1 31.51 28Zm-14-17.81c-7.37 0-13.7 6.11-14.74 14.2a1.12 1.12 0 0 0 .25.87.64.64 0 0 0 .48.24h28a.64.64 0 0 0 .48-.24 1.12 1.12 0 0 0 .25-.87c-1.03-8.06-7.36-14.17-14.73-14.17Z" fill="#ffffff" class="fill-000000"></path><path d="M27.38 12.74a1.17 1.17 0 0 1-.6-.16 1.24 1.24 0 0 1-.5-1.69l1.77-3.27a1.25 1.25 0 1 1 2.2 1.2l-1.77 3.26a1.26 1.26 0 0 1-1.1.66ZM7.68 12.74a1.26 1.26 0 0 1-1.1-.66L4.81 8.82A1.25 1.25 0 1 1 7 7.62l1.77 3.27a1.25 1.25 0 0 1-.5 1.69 1.2 1.2 0 0 1-.59.16ZM10.79 20.7a1.88 1.88 0 0 0 0-3.75 1.88 1.88 0 0 0 0 3.75ZM24.05 20.78a1.88 1.88 0 0 0 0-3.75 1.88 1.88 0 0 0 0 3.75Z" fill="#ffffff" class="fill-000000"></path></svg>